<svg xmlns="http://www.w3.org/2000/svg" width="32" height="32" enable-background="new 0 0 32 32" viewBox="0 0 32 32" id="microphone"><path d="M28.949,3.05C27.627,1.728,25.869,1,24,1c-1.87,0-3.628,0.728-4.95,2.05c-1.481,1.481-2.151,3.466-2.025,5.409
			L4.038,23.513C3.556,24.08,3.29,24.807,3.29,25.56c0,0.492,0.125,0.968,0.336,1.4l-2.333,2.333c-0.391,0.391-0.391,1.023,0,1.414
			C1.488,30.902,1.744,31,2,31s0.512-0.098,0.707-0.293l2.33-2.33c0.439,0.216,0.915,0.338,1.397,0.338
			c0.732,0,1.467-0.25,2.059-0.757l15.045-12.979C23.691,14.988,23.845,15,24,15c1.869,0,3.627-0.729,4.949-2.051
			C31.679,10.221,31.679,5.779,28.949,3.05z M7.189,26.441c-0.441,0.378-1.162,0.352-1.572-0.059
			C5.409,26.175,5.29,25.875,5.29,25.56c0-0.279,0.097-0.546,0.267-0.747L17.61,10.842c0.339,0.764,0.813,1.482,1.439,2.108
			c0.616,0.617,1.331,1.098,2.104,1.443L7.189,26.441z M20.464,11.536c-1.61-1.61-1.868-4.045-0.819-5.946
			c0.649,1.062,1.668,2.552,2.941,3.825c1.272,1.273,2.765,2.292,3.826,2.941C25.68,12.763,24.861,13,24,13
			C22.664,13,21.408,12.48,20.464,11.536z M27.997,10.969C27.064,10.433,25.363,9.363,24,8c-1.365-1.364-2.435-3.067-2.971-4
			C21.886,3.361,22.911,3,24,3c1.335,0,2.591,0.52,3.535,1.464C29.309,6.238,29.45,9.013,27.997,10.969z"></path><path d="M16.293,14.293l-1,1c-0.391,0.391-0.391,1.023,0,1.414C15.488,16.902,15.744,17,16,17s0.512-0.098,0.707-0.293l1-1
			c0.391-0.391,0.391-1.023,0-1.414S16.684,13.902,16.293,14.293z"></path></svg>